<svg width="169" height="60" viewBox="0 0 169 60" fill="none" xmlns="http://www.w3.org/2000/svg">
<rect width="169" height="60" fill="white"/>
<path fill-rule="evenodd" clip-rule="evenodd" d="M45.4931 29.1764C45.4972 29.4288 45.5016 29.6935 45.5016 29.9659C45.5388 32.0751 45.5759 34.4681 45.1645 35.6284C44.8473 36.5504 44.3439 37.3897 43.6888 38.0889C43.0336 38.7882 42.242 39.3309 41.3683 39.6798L41.2913 39.7132C40.3998 40.0751 39.4491 40.25 38.4933 40.228H38.0261C35.4988 40.1445 32 38.4193 32 35.3696C32 33.689 32.7964 30.7673 38.0792 30.1133L38.5252 30.0577C39.457 29.9464 40.4206 29.8295 41.3365 29.6208C42.7487 29.2953 42.9292 28.6831 42.9292 28.1822C42.9549 27.9083 42.9249 27.6317 42.8411 27.3708C42.7574 27.1099 42.6218 26.8705 42.4434 26.6685C41.9231 25.9923 40.9303 25.664 39.4092 25.664C36.5395 25.664 35.8679 27.0302 35.5652 28.505C35.5145 28.8505 35.3391 29.1624 35.0753 29.3763C34.8115 29.5902 34.4794 29.6897 34.1476 29.6542C33.7965 29.6593 33.4564 29.5255 33.1952 29.2795C32.9339 29.0336 32.7707 28.6934 32.738 28.3269C32.7353 28.2973 32.7353 28.2675 32.738 28.2379C32.8274 27.0908 33.2416 25.9979 33.9273 25.0991C35.1166 23.5826 37.0412 22.8119 39.6534 22.8119C40.8847 22.7926 42.0994 23.1121 43.1761 23.7384C44.23 24.4063 45.4857 25.7781 45.4857 28.5217C45.4857 28.7272 45.4893 28.9467 45.4931 29.1764ZM38.3792 37.3288C39.6136 37.3288 42.8151 36.5636 42.8151 33.0687V31.4826C42.5806 31.5906 42.3359 31.6726 42.0851 31.7275C41.2569 31.8944 40.0065 32.1254 39.2393 32.2478C36.2873 32.7208 34.883 33.2356 34.883 34.8718C34.883 36.3911 36.6961 37.3288 38.3792 37.3288Z" fill="#1E2431"/>
<path fill-rule="evenodd" clip-rule="evenodd" d="M49.0323 23.4995C48.3793 23.4995 48.0554 23.8418 48.0554 24.5235V44.4023C48.0554 45.0868 48.3793 45.429 49.0323 45.429H49.9588C50.58 45.429 50.9065 45.0868 50.9065 44.4023V38.1637C50.9093 37.7067 50.8801 37.25 50.8189 36.7975H50.8773C51.3327 37.6654 52.0081 38.3846 52.8288 38.8756C53.6495 39.3666 54.5837 39.6104 55.5283 39.5801C59.4386 39.5801 62.3136 36.3606 62.3136 31.352C62.3136 26.4741 59.7651 23.1211 55.7353 23.1211C51.9657 23.1211 50.6915 26.1346 50.6915 26.1346H50.6331C50.6718 25.8582 50.6913 25.5792 50.6915 25.2998V24.3705C50.6915 23.8418 50.365 23.4995 49.7146 23.4995H49.0323ZM59.4014 31.3881C59.4014 34.9581 57.4476 36.9783 55.077 36.9783C52.3214 36.9783 50.8481 34.2152 50.8481 31.4187C50.8481 27.4118 52.9134 25.7589 55.154 25.7672C57.6547 25.7672 59.4014 27.9711 59.4014 31.3881Z" fill="#1E2431"/>
<path fill-rule="evenodd" clip-rule="evenodd" d="M65.8946 23.4995C65.2416 23.4995 64.9177 23.8418 64.9177 24.5235L64.9257 44.4023C64.9257 45.0868 65.2495 45.429 65.9026 45.429H66.8212C67.4424 45.429 67.7688 45.0868 67.7688 44.4023V38.1637C67.7716 37.7067 67.7423 37.25 67.6812 36.7975H67.7395C68.1949 37.6654 68.8703 38.3846 69.6912 38.8756C70.5118 39.3666 71.4461 39.6104 72.3906 39.5801C76.3035 39.5801 79.176 36.3606 79.176 31.352C79.176 26.4741 76.6274 23.1211 72.5975 23.1211C68.8281 23.1211 67.5538 26.1346 67.5538 26.1346H67.4955C67.5342 25.8582 67.5538 25.5792 67.5538 25.2998V24.3705C67.5538 23.8418 67.2274 23.4995 66.5769 23.4995H65.8946ZM76.2637 31.388C76.2637 34.9581 74.3098 36.9782 71.9393 36.9782H71.9421C69.1865 36.9782 67.7052 34.2151 67.692 31.4186C67.692 27.4117 69.7652 25.7672 72.0164 25.7672C74.5168 25.7672 76.2637 27.971 76.2637 31.388Z" fill="#1E2431"/>
<path d="M82.319 26.1094H81.3766C81.2447 26.1244 81.111 26.1081 80.9857 26.0618C80.8604 26.0154 80.7463 25.9403 80.6524 25.8418C80.5585 25.7433 80.487 25.624 80.4427 25.4926C80.3983 25.3612 80.383 25.2211 80.3973 25.0827V24.6792C80.3833 24.5409 80.399 24.4011 80.4437 24.2701C80.488 24.1391 80.5596 24.0201 80.6538 23.922C80.7477 23.8238 80.8611 23.7489 80.9864 23.7027C81.1114 23.6566 81.2447 23.6403 81.3766 23.6552H82.3246V22.9094C82.319 17.9398 86.2002 17.1328 87.7478 17.1328H88.1038C88.7488 17.1328 89.0751 17.5057 89.0751 18.1568V18.7467C89.0751 19.4312 88.7223 19.7095 88.0399 19.7735C86.9436 19.8347 85.1943 20.113 85.1943 23.0347V23.6552H87.7719C87.9038 23.6403 88.0371 23.6566 88.1621 23.7027C88.2874 23.7489 88.4012 23.8238 88.495 23.922C88.5889 24.0201 88.6605 24.1391 88.7052 24.2701C88.7495 24.4011 88.7652 24.5409 88.7512 24.6792V25.0827C88.7655 25.2211 88.7502 25.3612 88.7059 25.4926C88.6619 25.624 88.59 25.7433 88.4961 25.8418C88.4022 25.9403 88.2884 26.0154 88.1628 26.0618C88.0375 26.1081 87.9038 26.1244 87.7719 26.1094H85.1943V38.1886C85.1943 38.8731 84.8704 39.2154 84.2174 39.2154H83.2987C82.6775 39.2154 82.3218 38.8731 82.3218 38.1886L82.319 26.1094Z" fill="#1E2431"/>
<path fill-rule="evenodd" clip-rule="evenodd" d="M105.346 31.3267C105.346 26.5741 101.733 23.1265 97.2571 23.1265C92.792 23.1265 89.2002 26.5407 89.2002 31.3239C89.2002 36.1072 92.7815 39.5854 97.2571 39.5854C101.733 39.5854 105.346 36.0794 105.346 31.3267ZM102.413 31.3269C102.413 34.6187 100.103 36.9784 97.2571 36.9784C94.4432 36.9784 92.102 34.5826 92.102 31.3241C92.102 28.0657 94.4115 25.7367 97.2571 25.7367C100.103 25.7367 102.413 28.0351 102.413 31.3269Z" fill="#1E2431"/>
<path d="M107.841 18.3126C107.841 17.6318 108.168 17.2904 108.821 17.2886H109.739C110.36 17.2886 110.716 17.6308 110.716 18.3126V34.5545C110.716 36.327 111.457 36.5747 112.078 36.6359C112.186 36.6389 112.292 36.665 112.39 36.7125C112.489 36.7601 112.577 36.8282 112.649 36.9125C112.721 36.9969 112.776 37.0958 112.811 37.2032C112.845 37.3107 112.859 37.4244 112.85 37.5374V38.2804C112.85 38.9315 112.585 39.3349 111.841 39.3349C110.249 39.3349 107.841 38.8703 107.841 34.9246V18.3126Z" fill="#1E2431"/>
<path d="M115.433 24.5235C115.433 23.8418 115.789 23.4995 116.41 23.4995H117.329C117.982 23.4995 118.306 23.8418 118.306 24.5235V38.1887C118.306 38.8733 117.982 39.2155 117.329 39.2155H116.418C115.797 39.2155 115.441 38.8733 115.441 38.1887L115.433 24.5235Z" fill="#1E2431"/>
<path fill-rule="evenodd" clip-rule="evenodd" d="M136.949 31.3267C136.949 26.5741 133.336 23.1265 128.86 23.1265C124.382 23.1265 120.801 26.5407 120.801 31.3239C120.801 36.1072 124.385 39.5854 128.86 39.5854C133.336 39.5854 136.949 36.0794 136.949 31.3267ZM134.016 31.3269C134.016 34.6187 131.706 36.9784 128.861 36.9784C126.046 36.9784 123.705 34.5826 123.705 31.3241C123.705 28.0657 126.015 25.7367 128.861 25.7367C131.706 25.7367 134.016 28.0351 134.016 31.3269Z" fill="#1E2431"/>
</svg>
