<svg width="169" height="60" viewBox="0 0 169 60" fill="none" xmlns="http://www.w3.org/2000/svg">
<rect width="169" height="60" fill="white"/>
<path fill-rule="evenodd" clip-rule="evenodd" d="M59.3841 37.7047C60.2095 36.8672 60.6836 35.6665 60.6836 34.3995C60.6836 33.1123 60.2504 32.0825 59.3841 31.1808C59.0749 30.8582 58.7441 30.7514 58.5383 30.73C58.868 30.4298 59.1773 29.7429 59.1773 28.7131C59.1773 27.4889 58.9295 26.4377 58.1051 25.5575C57.2593 24.6762 56.394 24.2051 54.4964 24.2051L48 24.2264V39.0999H55.631C57.4661 39.0999 58.5803 38.5625 59.3841 37.7047ZM51.9373 27.6383V29.8058H53.9587C54.3919 29.8058 54.6807 29.6552 54.8455 29.4843C55.0309 29.2909 55.1548 29.0121 55.1548 28.7119C55.1548 28.1105 54.7012 27.6372 54.1236 27.6372H51.9373V27.6383ZM56.3304 34.3996C56.3304 33.7768 55.8347 33.2832 55.2572 33.2832H51.9373V35.5586H54.9899C55.505 35.5586 55.8153 35.409 56.0007 35.2157C56.2065 35.001 56.3304 34.7222 56.3304 34.3996Z" fill="#2E3645"/>
<path d="M105.365 24.2051V33.2756C105.365 35.0375 104.763 36.5855 103.559 37.8114C102.354 39.0577 100.88 39.7017 99.157 39.7017C97.4549 39.7017 96.0014 39.0577 94.7756 37.8114C93.5711 36.5855 92.9692 35.0375 92.9692 33.2756V24.2051H97.4549V33.2756C97.4549 34.2641 98.222 35.0375 99.157 35.0375C100.113 35.0375 100.88 34.2641 100.88 33.2756V24.2051H105.365Z" fill="#2E3645"/>
<path d="M115.585 24.2051V30.9783L110.979 24.2051L106.518 24.2264V39.0785H110.979V32.221L115.605 39.0999L115.646 39.0785H120.066V24.2051H115.585Z" fill="#2E3645"/>
<path d="M91.9601 24.2051H86.3321L82.453 29.3559V24.2051H77.9792V31.6525V39.0999H82.453V33.948L86.3321 39.0999H91.9601L86.5236 31.6525L91.9601 24.2051Z" fill="#2E3645"/>
<path fill-rule="evenodd" clip-rule="evenodd" d="M69.1046 39.7014C71.2373 39.7014 73.038 38.9023 74.5488 37.346C76.0597 35.7683 76.8254 33.8678 76.8264 31.663C76.8264 29.4377 76.0607 27.5362 74.5488 25.9799C73.0369 24.4022 71.2373 23.603 69.1046 23.603C66.9719 23.603 65.1722 24.4022 63.6603 25.9799C62.17 27.5362 61.4043 29.4377 61.4043 31.663C61.4043 33.8678 62.17 35.7683 63.6603 37.346C65.1722 38.9023 66.9729 39.7014 69.1046 39.7014ZM69.1044 28.2922C69.9955 28.2922 70.7397 28.617 71.382 29.286C72.0439 29.9345 72.3543 30.7336 72.3543 31.6629C72.3543 32.5922 72.0439 33.3923 71.382 34.0613C70.7397 34.7098 69.9945 35.0336 69.1044 35.0336C68.1928 35.0336 67.4486 34.7098 66.8063 34.0613C66.1865 33.3913 65.8751 32.5922 65.8751 31.6629C65.8751 30.7336 66.1865 29.9345 66.8063 29.286C67.4486 28.617 68.1938 28.2922 69.1044 28.2922Z" fill="#2E3645"/>
<path fill-rule="evenodd" clip-rule="evenodd" d="M99.5667 6H99.5689L108.838 14.6905L105.492 17.1225L110.648 13.974L117.915 20.5299L119.778 21.948H78.1235L86.791 13.7408L88.289 14.2371L91.2697 11.6382L92.5196 12.8895L91.5657 14.4189L99.5667 6ZM99.5012 7.74128L92.0061 15.6757L97.1851 12.9881L97.2622 14.0287L97.8088 12.8737L97.9629 14.9527C97.9629 14.9527 100.706 11.4342 100.822 11.2994C100.829 11.2909 100.844 11.2866 100.863 11.2866C101.158 11.2866 102.719 12.1582 102.719 12.1582L99.5012 7.74128ZM90.7385 13.184L89.8023 15.3015L89.4815 14.9892L86.5533 18.373C86.5533 18.373 86.5454 17.9313 86.541 17.7709C86.541 17.7474 86.5205 17.7378 86.4867 17.7378C86.2861 17.7378 85.6027 18.0811 85.6027 18.0811L86.5112 16.1261L84.6305 16.5442L87.0091 14.6203L87.8867 15.5603L90.7385 13.184ZM110.74 15.0688L105.731 18.0986H105.752L110.657 16.7832L110.681 18.1264L111.677 17.027L113.024 16.9864L110.74 15.0688Z" fill="#1D57C7"/>
<path d="M73.6553 18.6382L70.2976 21.9481H67.3135L70.2976 18.6382H73.6553Z" fill="#2E3645"/>
<path d="M116.463 53.2423H116.896L120.066 48.127H119.634L117.937 50.9217L117.281 48.127H116.875L117.659 51.339L116.463 53.2423Z" fill="#666666"/>
<path d="M113.396 51.4365L113.747 49.5999C113.796 49.3395 113.883 49.113 114.006 48.9213C114.13 48.7297 114.278 48.5837 114.451 48.483C114.624 48.3824 114.81 48.333 115.008 48.333C115.26 48.333 115.45 48.3965 115.581 48.5243C115.711 48.6524 115.776 48.8418 115.776 49.0929C115.776 49.1891 115.763 49.3098 115.736 49.4561L115.358 51.4365H115.749L116.141 49.3945C116.164 49.2663 116.175 49.1523 116.175 49.0517C116.175 48.7222 116.078 48.4608 115.885 48.2673C115.691 48.0734 115.431 47.9761 115.102 47.9761C114.864 47.9761 114.643 48.031 114.438 48.1402C114.233 48.2502 114.058 48.4047 113.915 48.606L114.009 48.0853H113.645L113.004 51.4365H113.396Z" fill="#666666"/>
<path fill-rule="evenodd" clip-rule="evenodd" d="M111.508 50.9365C111.356 51.1397 111.165 51.2993 110.937 51.415C110.709 51.5307 110.468 51.5885 110.213 51.5874C109.949 51.5874 109.712 51.5243 109.502 51.397C109.291 51.2693 109.126 51.0897 109.005 50.8561C108.884 50.6229 108.824 50.354 108.824 50.049C108.824 49.6937 108.904 49.3587 109.062 49.044C109.221 48.7292 109.442 48.4735 109.726 48.2744C110.011 48.0761 110.323 47.9766 110.663 47.9766C110.944 47.9766 111.196 48.0483 111.414 48.1918C111.633 48.3352 111.799 48.5354 111.911 48.7946L112.058 48.0881H112.427L111.796 51.477H111.421L111.508 50.9365ZM109.218 50.0361C109.218 50.3959 109.318 50.6848 109.517 50.9022C109.716 51.1193 109.979 51.2286 110.306 51.2275C110.562 51.2275 110.799 51.1546 111.021 51.0093C111.242 50.8635 111.422 50.6603 111.561 50.3989C111.7 50.1379 111.77 49.851 111.77 49.5362C111.77 49.1712 111.671 48.8801 111.474 48.6626C111.277 48.4456 111.015 48.3374 110.689 48.3374C110.433 48.3374 110.195 48.4103 109.973 48.5556C109.752 48.7013 109.571 48.9045 109.43 49.1659C109.289 49.4269 109.218 49.7173 109.218 50.0361Z" fill="#666666"/>
<path fill-rule="evenodd" clip-rule="evenodd" d="M104.454 53.2424H104.067L105.013 48.0896H105.386L105.292 48.6371C105.442 48.4309 105.631 48.2695 105.857 48.1523C106.083 48.0352 106.325 47.9766 106.583 47.9766C106.843 47.9766 107.079 48.0405 107.287 48.1695C107.496 48.2988 107.659 48.4807 107.779 48.7174C107.899 48.9536 107.959 49.2257 107.959 49.535C107.959 49.8961 107.88 50.2355 107.723 50.5532C107.566 50.872 107.346 51.1311 107.064 51.3328C106.783 51.5337 106.474 51.6345 106.137 51.6345C105.857 51.6345 105.608 51.5618 105.392 51.4165C105.175 51.2723 105.011 51.0683 104.9 50.8058L104.454 53.2424ZM105.038 50.0546C105.038 50.4244 105.136 50.7193 105.331 50.9396C105.526 51.1595 105.786 51.2702 106.11 51.2691C106.362 51.2691 106.599 51.1952 106.819 51.048C107.037 50.9004 107.217 50.6945 107.357 50.4297C107.496 50.1653 107.567 49.8712 107.567 49.5481C107.567 49.1836 107.468 48.8911 107.271 48.6708C107.073 48.4508 106.813 48.3413 106.489 48.3413C106.235 48.3413 106 48.4151 105.78 48.5623C105.561 48.71 105.382 48.9158 105.245 49.1806C105.107 49.445 105.038 49.7369 105.038 50.0546Z" fill="#666666"/>
<path d="M98.302 51.4365H98.69L99.0378 49.5999C99.1133 49.2114 99.2618 48.9035 99.4825 48.6747C99.7036 48.4459 99.9604 48.3319 100.255 48.3319C100.736 48.3319 100.976 48.5826 100.976 49.0855C100.976 49.1999 100.963 49.3258 100.936 49.4624L100.561 51.4365H100.949L101.297 49.5999C101.372 49.2158 101.52 48.9087 101.738 48.678C101.956 48.447 102.213 48.3319 102.507 48.3319C102.997 48.3319 103.242 48.5826 103.242 49.0855C103.242 49.1954 103.228 49.3183 103.201 49.4561L102.827 51.4365H103.214L103.602 49.3945C103.624 49.2582 103.635 49.1404 103.635 49.0454C103.635 48.7159 103.541 48.4556 103.354 48.2639C103.167 48.0723 102.915 47.9761 102.599 47.9761C102.349 47.9761 102.113 48.0448 101.89 48.1815C101.668 48.3181 101.481 48.5105 101.329 48.7571C101.28 48.515 101.166 48.3245 100.988 48.1848C100.81 48.0448 100.592 47.9761 100.334 47.9761C100.129 47.9761 99.9254 48.0333 99.7231 48.1477C99.5208 48.2621 99.3474 48.4121 99.2051 48.5997L99.299 48.0853H98.9378L98.302 51.4365Z" fill="#666666"/>
<path fill-rule="evenodd" clip-rule="evenodd" d="M97.3419 50.5234C97.1825 50.84 96.9584 51.0969 96.6695 51.293C96.3816 51.4898 96.0621 51.5874 95.7106 51.5874C95.4401 51.5874 95.1954 51.5251 94.9785 51.4C94.7608 51.2746 94.5881 51.0958 94.4593 50.8625C94.3309 50.6293 94.2661 50.3604 94.2661 50.0554C94.2661 49.6956 94.3463 49.3576 94.5057 49.0406C94.6651 48.724 94.8903 48.4667 95.181 48.271C95.4721 48.075 95.7927 47.9766 96.1431 47.9766C96.4137 47.9766 96.6572 48.0397 96.8753 48.167C97.0929 48.2947 97.2645 48.4742 97.3912 48.7078C97.5175 48.9411 97.5812 49.2077 97.5812 49.5086C97.5812 49.868 97.5013 50.2064 97.3419 50.5234ZM94.6599 50.0354C94.6599 50.3952 94.7585 50.684 94.9557 50.9015C95.1532 51.1186 95.4144 51.2279 95.7371 51.2267C95.99 51.2267 96.2264 51.1539 96.4462 51.0085C96.6653 50.8628 96.8442 50.6596 96.982 50.3982C97.1198 50.1372 97.1885 49.8502 97.1885 49.5355C97.1885 49.1704 97.091 48.8793 96.8956 48.6619C96.7013 48.4448 96.4412 48.3366 96.1174 48.3366C95.8634 48.3366 95.6281 48.4095 95.4083 48.5548C95.1892 48.7006 95.0093 48.9037 94.8693 49.1652C94.7297 49.4262 94.6599 49.7165 94.6599 50.0354Z" fill="#666666"/>
<path d="M92.8586 51.5137C93.0308 51.465 93.1728 51.3985 93.2825 51.3143L93.2764 50.9518C93.1497 51.0357 93.0056 51.1014 92.8462 51.1508C92.6861 51.1995 92.532 51.2241 92.3836 51.2241C92.0208 51.2241 91.7315 51.1142 91.5167 50.8926C91.3015 50.672 91.195 50.3737 91.195 49.9973C91.195 49.6862 91.265 49.4034 91.4048 49.147C91.5451 48.8921 91.7265 48.6931 91.9498 48.5508C92.1727 48.4088 92.4113 48.3389 92.6658 48.3389C92.832 48.3389 92.9995 48.3669 93.1678 48.4228C93.3361 48.4786 93.4862 48.5572 93.6183 48.6595L93.69 48.297C93.5594 48.1989 93.4021 48.1214 93.2207 48.0633C93.0389 48.0051 92.8565 47.9761 92.6719 47.9761C92.3218 47.9761 92.0034 48.0742 91.7162 48.2691C91.4293 48.4639 91.206 48.7154 91.047 49.0254C90.8865 49.3343 90.8074 49.6658 90.8074 50.0188C90.8074 50.4976 90.9455 50.8786 91.2213 51.1618C91.4971 51.4446 91.8674 51.5869 92.3311 51.5869C92.5096 51.5869 92.6861 51.562 92.8586 51.5137Z" fill="#666666"/>
<path d="M87.0246 51.4353L87.326 49.8447C87.4166 49.3792 87.5752 49.0151 87.8012 48.7501C88.0275 48.4846 88.2904 48.3523 88.5918 48.3523C88.733 48.3523 88.8654 48.3803 88.9889 48.4362L89.0777 48.0668C88.973 48.0063 88.8336 47.9761 88.6602 47.9761C88.4416 47.9761 88.2312 48.0377 88.0304 48.1613C87.83 48.2842 87.6629 48.4536 87.5308 48.6669L87.647 48.0245H87.2772L86.6274 51.4365H87.0246V51.4353Z" fill="#666666"/>
<path fill-rule="evenodd" clip-rule="evenodd" d="M85.667 50.5234C85.5076 50.84 85.2838 51.0969 84.9949 51.293C84.706 51.4898 84.3873 51.5874 84.0358 51.5874C83.7654 51.5874 83.5208 51.5251 83.3039 51.4C83.086 51.2746 82.9133 51.0958 82.7848 50.8625C82.6553 50.6293 82.5916 50.3604 82.5916 50.0554C82.5916 49.6956 82.6717 49.3576 82.8311 49.0406C82.9904 48.724 83.2155 48.4667 83.5064 48.271C83.7973 48.075 84.1182 47.9766 84.4686 47.9766C84.7388 47.9766 84.9823 48.0397 85.2004 48.167C85.4184 48.2947 85.59 48.4742 85.7163 48.7078C85.8429 48.9411 85.9066 49.2077 85.9066 49.5086C85.9066 49.868 85.8264 50.2064 85.667 50.5234ZM82.9854 50.0354C82.9854 50.3952 83.084 50.684 83.2814 50.9015C83.4788 51.1186 83.7398 51.2279 84.0636 51.2267C84.3176 51.2267 84.5529 51.1539 84.7731 51.0085C84.9918 50.8628 85.1706 50.6596 85.3084 50.3982C85.4462 50.1372 85.5149 49.8502 85.5149 49.5355C85.5149 49.1704 85.4174 48.8793 85.2221 48.6619C85.0267 48.4448 84.7666 48.3366 84.4428 48.3366C84.1902 48.3366 83.9537 48.4095 83.7337 48.5548C83.5147 48.7006 83.3348 48.9037 83.195 49.1652C83.0553 49.4262 82.9854 49.7165 82.9854 50.0354Z" fill="#666666"/>
<path d="M81.3393 51.3129C81.5645 51.1309 81.677 50.8892 81.677 50.5885C81.677 50.367 81.6058 50.179 81.4633 50.024C81.3207 49.8686 81.0729 49.7083 80.7207 49.5424C80.4842 49.4313 80.32 49.3273 80.226 49.2312C80.132 49.1337 80.0855 49.018 80.0855 48.8844C80.0855 48.7185 80.1537 48.5826 80.289 48.479C80.4253 48.3751 80.6019 48.3229 80.8209 48.3229C81.1555 48.3229 81.4787 48.434 81.7907 48.6555L81.8712 48.309C81.7328 48.2073 81.5697 48.1258 81.3796 48.0662C81.1906 48.0061 81.0058 47.9761 80.8281 47.9761C80.4976 47.9761 80.2301 48.0639 80.0225 48.2396C79.8149 48.4149 79.7117 48.6416 79.7117 48.9186C79.7117 49.1261 79.7778 49.3059 79.9089 49.4557C80.0401 49.6055 80.258 49.7522 80.5606 49.8952C80.8374 50.0247 81.0264 50.1415 81.1287 50.2451C81.2309 50.349 81.2825 50.4751 81.2825 50.623C81.2825 50.8081 81.2092 50.9567 81.0615 51.0701C80.9148 51.1834 80.7155 51.2401 80.4666 51.2401C80.2704 51.2401 80.0762 51.2048 79.8852 51.1331C79.6931 51.0614 79.5195 50.959 79.3636 50.825L79.2769 51.1782C79.4059 51.2979 79.5784 51.3963 79.7953 51.4725C80.0112 51.5483 80.227 51.5869 80.4408 51.5869C80.8147 51.5858 81.1142 51.4946 81.3393 51.3129Z" fill="#666666"/>
<path d="M79.0432 46.9813C79.1027 46.9193 79.1324 46.8422 79.1324 46.749C79.1324 46.6652 79.1078 46.5991 79.0596 46.5476C79.0104 46.4972 78.9488 46.4717 78.8739 46.4717C78.7806 46.4717 78.7047 46.5025 78.6452 46.5649C78.5857 46.6269 78.5559 46.7051 78.5559 46.7971C78.5559 46.8753 78.5815 46.9418 78.6318 46.9941C78.6831 47.0478 78.7457 47.0734 78.8216 47.0734C78.9098 47.0756 78.9837 47.0437 79.0432 46.9813Z" fill="#666666"/>
<path d="M77.8354 51.5874H78.2172L78.8444 48.127H78.4616L77.8354 51.5874Z" fill="#666666"/>
<path d="M75.2293 51.5874H75.6035L77.5473 48.127H77.1336L75.499 51.1195L74.9139 48.127H74.5205L75.2293 51.5874Z" fill="#666666"/>
<path fill-rule="evenodd" clip-rule="evenodd" d="M72.8864 50.9352C72.7347 51.1381 72.5435 51.2975 72.3149 51.4131C72.0863 51.5286 71.8443 51.5863 71.5886 51.5863C71.3247 51.5863 71.0868 51.5229 70.8758 51.3958C70.6649 51.2686 70.4997 51.089 70.3781 50.8561C70.2566 50.6232 70.1963 50.3546 70.1963 50.05C70.1963 49.6952 70.2763 49.3607 70.4353 49.0464C70.5943 48.732 70.8166 48.4766 71.1013 48.2778C71.386 48.0798 71.6988 47.9804 72.0396 47.9804C72.3222 47.9804 72.5726 48.0532 72.7929 48.1987C73.0132 48.3439 73.1763 48.5438 73.2844 48.7973L73.8424 45.8691H74.232L73.1763 51.4749H72.7991L72.8864 50.9352ZM70.5932 50.0363C70.5932 50.3956 70.693 50.684 70.8924 50.9012C71.0919 51.118 71.3548 51.2271 71.6821 51.226C71.9377 51.226 72.1767 51.1532 72.3991 51.0081C72.6204 50.8626 72.8012 50.6596 72.9404 50.3986C73.0796 50.1379 73.1492 49.8514 73.1492 49.5371C73.1492 49.1725 73.0505 48.8818 72.8531 48.6646C72.6568 48.4479 72.3939 48.3398 72.0666 48.3398C71.8109 48.3398 71.572 48.4126 71.3496 48.5578C71.1283 48.7033 70.9465 48.9062 70.8051 49.1672C70.6639 49.4279 70.5932 49.7178 70.5932 50.0363Z" fill="#666666"/>
<path fill-rule="evenodd" clip-rule="evenodd" d="M61.9337 53.2424H61.5483L62.4927 48.0896H62.8658L62.7722 48.6371C62.9223 48.4309 63.1113 48.2695 63.3374 48.1523C63.5635 48.0352 63.806 47.9766 64.0629 47.9766C64.3239 47.9766 64.5592 48.0405 64.7678 48.1695C64.9764 48.2988 65.1398 48.4807 65.2601 48.7174C65.3803 48.9536 65.4399 49.2257 65.4399 49.535C65.4399 49.8961 65.3608 50.2355 65.2036 50.5532C65.0463 50.872 64.8264 51.1311 64.5448 51.3328C64.2633 51.5337 63.954 51.6345 63.6169 51.6345C63.3374 51.6345 63.0887 51.5618 62.8719 51.4165C62.6551 51.2723 62.4907 51.0683 62.3797 50.8058L61.9337 53.2424ZM62.5195 50.0546C62.5195 50.4244 62.6171 50.7193 62.8123 50.9396C63.0076 51.1595 63.2676 51.2702 63.5913 51.2691C63.8441 51.2691 64.0804 51.1952 64.3003 51.048C64.5192 50.9004 64.699 50.6945 64.8388 50.4297C64.9785 50.1653 65.0484 49.8712 65.0484 49.5481C65.0484 49.1836 64.9498 48.8911 64.7525 48.6708C64.5552 48.4508 64.2942 48.3413 63.9705 48.3413C63.7166 48.3413 63.4813 48.4151 63.2614 48.5623C63.0425 48.71 62.8637 48.9158 62.726 49.1806C62.5883 49.445 62.5195 49.7369 62.5195 50.0546Z" fill="#666666"/>
<path d="M61.4592 46.9813C61.5187 46.9193 61.5485 46.8422 61.5485 46.749C61.5485 46.6652 61.5238 46.5991 61.4756 46.5476C61.4264 46.4972 61.3648 46.4717 61.29 46.4717C61.1966 46.4717 61.1207 46.5025 61.0612 46.5649C61.0017 46.6269 60.9719 46.7051 60.9719 46.7971C60.9719 46.8753 60.9976 46.9418 61.0479 46.9941C61.0991 47.0478 61.1617 47.0734 61.2376 47.0734C61.3248 47.0756 61.3997 47.0437 61.4592 46.9813Z" fill="#666666"/>
<path d="M60.251 51.5874H60.6338L61.2599 48.127H60.8771L60.251 51.5874Z" fill="#666666"/>
<path d="M58.0543 51.4353L58.3554 49.8447C58.4463 49.3792 58.6048 49.0151 58.8309 48.7501C59.057 48.4846 59.3201 48.3523 59.6212 48.3523C59.7628 48.3523 59.8948 48.3803 60.0185 48.4362L60.1072 48.0668C60.0026 48.0063 59.8632 47.9761 59.6899 47.9761C59.4712 47.9761 59.2609 48.0377 59.0601 48.1613C58.8594 48.2842 58.6935 48.4536 58.5604 48.6669L58.6766 48.0245H58.3068L57.657 51.4365H58.0543V51.4353Z" fill="#666666"/>
<path d="M55.0609 51.4362H55.4693L56.3862 46.5447H58.1663L58.2335 46.1704H54.2649L54.1978 46.5447H55.9778L55.0609 51.4362Z" fill="#666666"/>
<path fill-rule="evenodd" clip-rule="evenodd" d="M50.6828 50.9365C50.5314 51.1397 50.3407 51.2993 50.1126 51.415C49.8846 51.5307 49.643 51.5885 49.3891 51.5874C49.1258 51.5874 48.8884 51.5243 48.678 51.397C48.4675 51.2693 48.3027 51.0897 48.1814 50.8561C48.0601 50.6229 48 50.354 48 50.049C48 49.6937 48.0798 49.3587 48.2384 49.044C48.397 48.7292 48.6189 48.4735 48.9029 48.2744C49.1869 48.0761 49.499 47.9766 49.839 47.9766C50.1209 47.9766 50.3708 48.0483 50.5905 48.1918C50.8092 48.3352 50.9751 48.5354 51.0871 48.7946L51.2343 48.0881H51.6033L50.972 51.477H50.5957L50.6828 50.9365ZM48.395 50.0361C48.395 50.3959 48.4945 50.6848 48.6935 50.9022C48.8925 51.1193 49.1559 51.2286 49.4824 51.2275C49.7374 51.2275 49.9758 51.1546 50.1977 51.0093C50.4185 50.8635 50.5988 50.6603 50.7377 50.3989C50.8766 50.1379 50.9461 49.851 50.9461 49.5362C50.9461 49.1712 50.8476 48.8801 50.6507 48.6626C50.4537 48.4456 50.1914 48.3374 49.8649 48.3374C49.6099 48.3374 49.3715 48.4103 49.1496 48.5556C48.9288 48.7013 48.7474 48.9045 48.6064 49.1659C48.4655 49.4269 48.395 49.7173 48.395 50.0361Z" fill="#666666"/>
<path fill-rule="evenodd" clip-rule="evenodd" d="M68.6994 50.9365C68.548 51.1397 68.3573 51.2993 68.1292 51.415C67.9012 51.5307 67.6596 51.5885 67.4057 51.5874C67.1424 51.5874 66.905 51.5243 66.6945 51.397C66.4841 51.2693 66.3193 51.0897 66.198 50.8561C66.0767 50.6229 66.0166 50.354 66.0166 50.049C66.0166 49.6937 66.0964 49.3587 66.255 49.044C66.4136 48.7292 66.6355 48.4735 66.9195 48.2744C67.2035 48.0761 67.5156 47.9766 67.8556 47.9766C68.1375 47.9766 68.3874 48.0483 68.6071 48.1918C68.8258 48.3352 68.9917 48.5354 69.1036 48.7946L69.2509 48.0881H69.6199L68.9886 51.477H68.6123L68.6994 50.9365ZM66.4116 50.0361C66.4116 50.3959 66.5111 50.6848 66.7101 50.9022C66.9092 51.1193 67.1725 51.2286 67.499 51.2275C67.754 51.2275 67.9924 51.1546 68.2143 51.0093C68.4351 50.8635 68.6154 50.6603 68.7544 50.3989C68.8933 50.1379 68.9627 49.851 68.9627 49.5362C68.9627 49.1712 68.8642 48.8801 68.6673 48.6626C68.4703 48.4456 68.2081 48.3374 67.8815 48.3374C67.6265 48.3374 67.3881 48.4103 67.1662 48.5556C66.9455 48.7013 66.7641 48.9045 66.6231 49.1659C66.4821 49.4269 66.4116 49.7173 66.4116 50.0361Z" fill="#666666"/>
</svg>
