<svg width="169" height="60" viewBox="0 0 169 60" fill="none" xmlns="http://www.w3.org/2000/svg">
<rect width="169" height="60" fill="white"/>
<path fill-rule="evenodd" clip-rule="evenodd" d="M42.5148 17.215C39.1998 15.0629 34.8357 15.5756 30.9434 18.1169C27.0632 15.5756 22.6964 15.0629 19.3854 17.215C14.1479 20.6159 13.5111 29.3747 17.9645 36.7793C21.2471 42.2382 26.3805 45.4369 30.9501 45.3779C35.5198 45.4369 40.6532 42.2382 43.9357 36.7793C48.3837 29.3747 47.7523 20.6159 42.5148 17.215ZM20.3724 35.2155C19.4541 33.7029 18.7613 32.0548 18.3174 30.3269C17.9231 28.827 17.7723 27.2693 17.8713 25.7178C18.07 22.9813 19.1421 20.8503 20.8889 19.7166C22.6356 18.583 24.9448 18.5142 27.404 19.5284C27.7731 19.6815 28.1381 19.8585 28.5004 20.0538C27.1338 21.3485 25.9455 22.8328 24.9691 24.4648C22.2652 28.96 21.4405 33.9624 22.3841 37.9506C21.6317 37.1072 20.9581 36.1914 20.3724 35.2155ZM41.5293 35.2142C42.447 33.7013 43.1398 32.0532 43.5842 30.3256C43.9763 28.8248 44.1253 27.2667 44.025 25.7151C43.8262 22.9786 42.7555 20.849 41.0074 19.7139C39.2593 18.5788 36.9461 18.5114 34.4936 19.5257C33.1106 20.114 31.8313 20.9372 30.7081 21.9615C28.1036 24.3292 26.2307 27.4438 25.3246 30.9142C24.9308 32.4142 24.7801 33.9718 24.8785 35.5232C25.0772 38.2583 26.1493 40.3893 27.8974 41.5244C28.7982 42.0971 29.8307 42.4076 30.8866 42.4235H31.0204C32.0763 42.4073 33.1087 42.0968 34.0096 41.5244C35.7564 40.3893 36.8285 38.2583 37.0272 35.5232C37.1253 33.9736 36.974 32.4178 36.5797 30.9198C36.4783 30.4984 36.3431 30.077 36.2079 29.6556L36.2079 29.6555L32.0277 32.3695C31.9092 32.4467 31.7661 32.4717 31.6298 32.439C31.4936 32.4064 31.3755 32.3187 31.3016 32.1953L30.3553 30.6234C30.2809 30.5001 30.2568 30.3511 30.2882 30.2094C30.3197 30.0676 30.4041 29.9446 30.5229 29.8676L36.9718 25.6814C37.096 25.5984 37.2482 25.574 37.3907 25.6141C37.5332 25.6543 37.6526 25.7553 37.7194 25.8921C39.7879 29.9997 40.3612 34.3797 39.5175 37.9549C40.2695 37.109 40.9431 36.1914 41.5293 35.2142ZM76.8723 27.057C73.4816 27.057 70.7411 29.8075 70.7411 33.3068C70.7411 36.7822 73.4816 39.4878 76.8723 39.4878C80.286 39.4878 83.0264 36.7864 83.0264 33.3068C83.0264 29.8089 80.2901 27.0584 76.8723 27.0584V27.057ZM74.1197 33.2826C74.1197 34.9065 75.3095 36.2199 76.8723 36.2199V36.2256C78.4582 36.2256 79.6479 34.9107 79.6479 33.2868C79.6479 31.6629 78.4582 30.3255 76.8723 30.3255C75.3095 30.3255 74.1197 31.6586 74.1197 33.2826ZM90.6717 22.2567H84.4324C84.2962 22.254 84.1649 22.3091 84.0687 22.4093C83.9725 22.5095 83.9198 22.6462 83.9227 22.7877V38.5928C83.9129 38.7391 83.9624 38.883 84.0592 38.9897C84.156 39.0964 84.2913 39.1562 84.4324 39.1547H90.6717C95.6645 39.1547 99.1337 35.7046 99.1337 30.6853C99.1337 25.6352 95.6645 22.2567 90.6717 22.2567ZM87.4055 35.8169H90.8192C93.5826 35.8169 95.4875 33.5734 95.4875 30.6782C95.4875 27.7338 93.5826 25.5859 90.8192 25.5859H87.4055V35.8169ZM111.553 27.3968H109.207C108.938 27.4189 108.729 27.6477 108.721 27.9278V28.6513C108.186 27.734 106.979 27.0583 105.476 27.0583C102.55 27.0583 99.8097 29.4464 99.8097 33.2603C99.8097 37.0532 102.526 39.4849 105.453 39.4849C106.962 39.4849 108.193 38.8106 108.727 37.8933V38.6406C108.729 38.9195 108.946 39.1454 109.214 39.1477H111.56C111.69 39.1508 111.816 39.0984 111.908 39.0026C112 38.9068 112.051 38.776 112.048 38.6406V27.9278C112.052 27.7887 112.001 27.6538 111.908 27.5537C111.815 27.4537 111.687 27.3971 111.553 27.3968ZM103.376 33.2854C103.376 35.0062 104.543 36.2466 106.096 36.2466V36.2452C107.651 36.2452 108.817 35.0048 108.817 33.284C108.817 31.5631 107.65 30.3255 106.096 30.3255C104.543 30.3255 103.376 31.5645 103.376 33.2854ZM124.72 22.2568H122.374C122.241 22.2527 122.113 22.304 122.017 22.3994C121.921 22.4947 121.866 22.6261 121.864 22.7639V28.6036C121.323 27.734 120.099 27.0583 118.567 27.0583C115.663 27.0583 112.97 29.4465 112.97 33.2604C112.97 37.0533 115.686 39.485 118.613 39.485C120.122 39.485 121.26 38.8107 121.887 37.8933V38.6407C121.888 38.9199 122.105 39.1463 122.374 39.1478H124.72C124.85 39.1513 124.976 39.099 125.068 39.0031C125.161 38.9073 125.211 38.7762 125.208 38.6407V22.7668C125.212 22.6307 125.162 22.499 125.069 22.4025C124.977 22.306 124.851 22.2533 124.72 22.2568ZM116.559 33.2841C116.559 35.0232 117.716 36.2762 119.263 36.2762C120.811 36.2762 121.967 35.0232 121.967 33.2841C121.967 31.545 120.806 30.2919 119.263 30.2919C117.721 30.2919 116.559 31.545 116.559 33.2841ZM137.884 22.2568H135.542C135.409 22.2527 135.281 22.304 135.185 22.3993C135.088 22.4946 135.033 22.626 135.031 22.7639V28.6036C134.497 27.734 133.265 27.0583 131.734 27.0583C128.83 27.0583 126.137 29.4465 126.137 33.2604C126.137 37.0533 128.854 39.485 131.78 39.485C133.29 39.485 134.427 38.8107 135.054 37.8933V38.6407C135.056 38.9201 135.273 39.1463 135.542 39.1478H137.884C138.014 39.1513 138.14 39.099 138.232 39.0031C138.324 38.9072 138.374 38.7761 138.37 38.6407V22.7668C138.375 22.6309 138.325 22.4991 138.233 22.4025C138.141 22.306 138.015 22.2533 137.884 22.2568ZM129.723 33.2841C129.723 35.0232 130.879 36.2762 132.427 36.2762H132.431C133.978 36.2762 135.131 35.0232 135.131 33.2841C135.131 31.545 133.97 30.2919 132.427 30.2919C130.885 30.2919 129.723 31.545 129.723 33.2841ZM150.727 28.2186L147.227 40.6916C146.551 42.9112 145.044 44.2387 142.698 44.2387C141.631 44.2387 140.661 44.0125 139.899 43.5602C139.456 43.2975 139.088 43.0572 139.088 42.6723C139.088 42.4335 139.163 42.3099 139.298 42.0865L139.993 41.0049C140.189 40.7028 140.333 40.6045 140.544 40.6045C140.711 40.6088 140.873 40.6672 141.007 40.7717C141.443 41.0653 141.849 41.3181 142.467 41.3181C143.189 41.3181 143.74 41.0779 144.038 40.1845L144.338 39.1492H142.921C142.622 39.1591 142.358 38.946 142.294 38.642L139.161 28.2186C139.045 27.8084 139.152 27.3982 139.732 27.3982H142.199C142.501 27.3982 142.711 27.505 142.844 27.9531L145.157 36.3466L147.32 27.9531C147.389 27.6637 147.576 27.3982 147.948 27.3982H150.288C150.749 27.3968 150.888 27.734 150.727 28.2186ZM69.857 38.5915V31.9287C69.8579 31.7845 69.8016 31.6463 69.7013 31.5466C69.601 31.4469 69.4656 31.3946 69.327 31.4019H63.3446C63.2033 31.3996 63.0672 31.4569 62.9674 31.5607C62.8675 31.6644 62.8124 31.8058 62.8146 31.9526V33.7633C62.8124 33.9101 62.8675 34.0515 62.9674 34.1553C63.0672 34.259 63.2033 34.3163 63.3446 34.314H65.386C64.7465 35.2398 63.3743 36.0826 61.6532 36.0826C58.3815 36.0826 56.6239 33.665 56.6239 30.7248C56.6239 27.6919 58.6884 25.353 61.5708 25.353C63.7934 25.353 65.2373 26.4417 66.0485 28.0445C66.103 28.1791 66.1978 28.2919 66.3189 28.3662C66.457 28.4204 66.6097 28.4179 66.7461 28.3592L69.0066 27.4545C69.3162 27.3435 69.4122 27.2283 69.4122 27.0766C69.4093 26.9842 69.3896 26.8931 69.354 26.8083C68.0859 23.5984 65.2305 22.0026 61.6587 22.0026C56.82 22.0026 52.9899 25.6213 52.9899 30.8709C52.9899 35.9225 56.5374 39.4709 61.0773 39.4709C63.4946 39.4709 65.6321 38.4553 66.861 36.8426V38.5915C66.8584 38.7384 66.9134 38.88 67.0134 38.9839C67.1133 39.0878 67.2496 39.1449 67.391 39.1422H69.327C69.4682 39.1445 69.6043 39.0872 69.7042 38.9835C69.8041 38.8797 69.8592 38.7383 69.857 38.5915ZM150.791 24.93V24.7684C150.791 24.7571 150.795 24.7461 150.802 24.7375C150.809 24.7303 150.82 24.7263 150.83 24.7263H151.818C151.829 24.7259 151.839 24.73 151.847 24.7375C151.854 24.7461 151.858 24.7571 151.858 24.7684V24.93C151.857 24.9408 151.854 24.9513 151.847 24.9595C151.839 24.967 151.829 24.9711 151.818 24.9707H151.457V25.9836C151.457 26.0065 151.439 26.025 151.417 26.0257H151.23C151.22 26.0257 151.21 26.0211 151.203 26.0131C151.195 26.0054 151.191 25.9947 151.191 25.9836V24.9707H150.83C150.819 24.9716 150.809 24.9676 150.801 24.9597C150.794 24.9519 150.79 24.941 150.791 24.93ZM152.789 25.4133L152.519 24.7629C152.516 24.7523 152.511 24.7425 152.504 24.7348C152.493 24.7289 152.481 24.726 152.469 24.7264H152.165C152.154 24.7256 152.144 24.7294 152.136 24.7369C152.129 24.7444 152.125 24.7549 152.125 24.7657V25.985C152.125 25.9955 152.128 26.0058 152.135 26.0135C152.142 26.0212 152.152 26.0257 152.162 26.0258H152.342C152.352 26.026 152.362 26.0218 152.369 26.014C152.376 26.0063 152.38 25.9958 152.379 25.985V25.0649L152.669 25.7336C152.673 25.7465 152.68 25.7578 152.69 25.7659C152.701 25.7721 152.713 25.775 152.726 25.7743H152.869C152.882 25.7752 152.894 25.7723 152.905 25.7659C152.915 25.7574 152.923 25.7462 152.927 25.7336L153.218 25.0649V25.985C153.217 25.9961 153.221 26.0069 153.229 26.0145C153.236 26.0221 153.246 26.0262 153.257 26.0258H153.433C153.443 26.0262 153.453 26.022 153.46 26.0142C153.468 26.0065 153.471 25.9958 153.471 25.985V24.7657C153.471 24.7549 153.467 24.7444 153.459 24.7369C153.452 24.7294 153.442 24.7256 153.431 24.7264H153.118C153.105 24.7258 153.092 24.7287 153.081 24.7348C153.071 24.7415 153.064 24.7514 153.06 24.7629L152.789 25.4133Z" fill="#171C34"/>
</svg>
