<svg width="169" height="60" viewBox="0 0 169 60" fill="none" xmlns="http://www.w3.org/2000/svg">
<rect width="169" height="60" fill="white"/>
<rect x="129.103" y="23.0615" width="16.8843" height="17.4039" fill="white"/>
<path fill-rule="evenodd" clip-rule="evenodd" d="M129.38 23.3472H145.71V40.1794H129.38V23.3472ZM137.345 28.8082C137.728 28.8082 137.969 29.0353 137.969 29.3894C137.969 29.7429 137.774 30.1063 137.25 30.4971C136.807 29.911 136.712 29.7313 136.712 29.4012C136.712 29.0596 136.975 28.8082 137.345 28.8082ZM136.993 32.1835C136.311 32.6486 136.038 33.1022 136.051 33.5296C136.07 34.1807 136.599 34.5972 137.376 34.5972C137.772 34.6017 138.155 34.4531 138.45 34.1807L136.993 32.1835ZM142.002 29.0333H140.772L140.772 27.7638H143.537V35.6875L142.002 35.688V29.0333ZM134.651 33.5694C134.752 35.0182 135.822 35.8319 137.376 35.8411C138.17 35.846 138.662 35.6735 139.222 35.2109L139.564 35.6867H141.083L140.101 34.3436C140.568 33.7333 140.719 33.101 140.719 32.1C140.719 32.0774 140.717 32.0289 140.714 31.9681L140.714 31.968C140.71 31.8658 140.703 31.7289 140.703 31.622H139.469C139.474 31.7054 139.479 31.7858 139.484 31.8552L139.484 31.8554C139.49 31.9482 139.495 32.0214 139.496 32.0563C139.516 32.569 139.42 33.2002 139.31 33.3033L137.981 31.446C138.878 30.6769 139.17 30.133 139.17 29.4012C139.17 28.4001 138.416 27.6697 137.352 27.6697C136.204 27.6697 135.394 28.3877 135.394 29.3645C135.394 29.9382 135.536 30.2547 136.23 31.1703C135.152 31.8114 134.591 32.703 134.651 33.5697V33.5694ZM132.17 29.0333H130.94V27.7638H133.706V35.6875L132.17 35.688V29.0333Z" fill="#003D8F"/>
<path fill-rule="evenodd" clip-rule="evenodd" d="M115.522 35.7637V35.2341C115.89 35.5564 116.304 35.9018 117.108 35.9022C118.537 35.9022 119.397 34.8085 119.397 32.817C119.397 30.8831 118.47 29.7434 117.041 29.7434C116.482 29.7434 115.89 30.0428 115.522 30.4572V27.4526L114.74 27.8555V35.7637H115.522ZM116.985 30.468C118.046 30.468 118.582 31.3084 118.582 32.8164L118.582 32.8165C118.582 34.267 118.057 35.1763 116.985 35.1763C116.415 35.1763 115.835 34.8079 115.522 34.2553V31.3659C115.734 30.9859 116.281 30.468 116.985 30.468Z" fill="#003D8F"/>
<path d="M122.1 35.5802L120.011 29.8823H120.804L122.245 34.0609C122.312 34.2567 122.368 34.4523 122.435 34.6596L122.636 34.0609L124.099 29.8823H124.937L122.022 37.998H121.251L122.1 35.5802Z" fill="#003D8F"/>
<path d="M102.338 40.7997C101.913 40.7998 101.489 40.7556 101.073 40.6679C99.2604 40.2838 97.6902 39.1279 96.7498 37.4856L96.7262 37.441C96.2583 36.4768 96.5661 35.3425 97.4414 34.8009C97.7321 34.6215 98.0645 34.5268 98.4033 34.5268C99.0907 34.5286 99.7239 34.9118 100.06 35.5297C100.079 35.5649 100.102 35.6031 100.125 35.6398L100.326 35.9224L100.597 36.2045C100.949 36.5183 101.375 36.7307 101.832 36.8202C102.579 36.9674 103.351 36.7855 103.961 36.3185C104.588 35.855 104.98 35.1264 105.031 34.333C105.093 33.5461 104.823 32.7696 104.29 32.2022C104.29 32.2022 98.5699 26.0779 98.3132 25.7939C98.0628 25.531 97.8321 25.2488 97.6234 24.9497C96.8163 23.7705 96.5639 22.3802 96.6885 21.004C96.7547 20.0441 97.03 19.1119 97.494 18.2769C97.494 18.2769 97.7561 17.82 97.8332 17.704C98.1363 17.2484 98.7326 16.6593 99.1414 16.3302C99.4855 16.0682 99.8531 15.8406 100.239 15.6505C103.198 14.1704 106.764 15.3047 108.399 18.2464C108.658 18.6922 108.729 19.2271 108.597 19.7282C108.466 20.2388 108.14 20.6728 107.693 20.9314C107.412 21.1022 107.092 21.1919 106.766 21.1912C106.082 21.1896 105.453 20.8082 105.12 20.1935C104.759 19.5624 104.153 19.1208 103.455 18.9804C102.748 18.839 102.016 19.0088 101.436 19.4486C100.877 19.8913 100.529 20.5597 100.481 21.2843C100.422 22.0176 100.67 22.7418 101.162 23.2748L107.011 29.4912C108.292 30.8625 108.95 32.7281 108.824 34.6273C108.658 36.5602 107.726 38.3117 106.266 39.4393C105.133 40.3166 103.755 40.7938 102.338 40.8001" fill="#003D8F"/>
<path fill-rule="evenodd" clip-rule="evenodd" d="M90.118 34.3134C90.1143 37.8927 87.3005 40.7934 83.8281 40.7979V40.7975C80.3555 40.7933 77.5415 37.8925 77.5377 34.313V21.4883C77.5496 17.9162 80.3623 15.0269 83.8279 15.0269C87.2934 15.0269 90.1061 17.9162 90.118 21.4883V34.3134ZM86.3205 21.4883C86.3205 20.0958 85.1794 18.92 83.8286 18.9198C83.8286 18.9198 83.8286 18.9198 83.8286 18.9198H83.8282C83.8283 18.9198 83.8284 18.9198 83.8286 18.9198C82.4527 18.9211 81.3375 20.0701 81.3357 21.4883V34.313C81.3286 34.9966 81.5889 35.6543 82.0579 36.1377C82.5269 36.6211 83.165 36.8894 83.8282 36.882C85.204 36.8803 86.3188 35.7311 86.3205 34.313V21.4883Z" fill="#003D8F"/>
<path d="M55.5785 20.1084V38.8384C55.5785 39.9193 56.4286 40.7956 57.4773 40.7956C58.526 40.7956 59.3761 39.9193 59.3761 38.8384V28.232L55.5785 20.1084Z" fill="#003D8F"/>
<path d="M65.8798 27.5763V16.9614C65.8863 15.8851 66.7346 15.0161 67.7788 15.0161C68.8229 15.0161 69.6712 15.8851 69.6778 16.9614V35.7004L65.8798 27.5763Z" fill="#003D8F"/>
<path d="M69.6462 38.4167V38.835C69.6412 39.7398 69.0372 40.524 68.1835 40.7345C67.3297 40.9449 66.447 40.5271 66.0453 39.7225L55.6022 17.4076V16.9609C55.601 16.2074 56.0232 15.5213 56.6851 15.2015C57.1379 14.9702 57.6619 14.9366 58.139 15.1083C58.616 15.28 59.0058 15.6426 59.2204 16.1142L69.6462 38.4167Z" fill="#003D8F"/>
<path fill-rule="evenodd" clip-rule="evenodd" d="M47.6564 34.313C47.6523 37.8922 44.8387 40.7928 41.3664 40.7975C37.8939 40.7931 35.08 37.8924 35.076 34.313V21.4883C35.088 17.9162 37.9007 15.0269 41.3662 15.0269C44.8317 15.0269 47.6444 17.9162 47.6564 21.4883V34.313ZM43.8588 21.4883C43.8389 20.0781 42.7345 18.94 41.3665 18.9198C39.9909 18.9214 38.876 20.0703 38.8742 21.4883V34.313C38.8673 35.2355 39.3408 36.0911 40.1147 36.5544C40.8887 37.0178 41.8443 37.0178 42.6182 36.5544C43.3922 36.0911 43.8657 35.2355 43.8588 34.313V21.4883Z" fill="#003D8F"/>
<path d="M23 38.6325C22.9956 39.3983 23.3894 40.1079 24.0321 40.4921C24.6747 40.8764 25.4678 40.8764 26.1105 40.4921C26.7532 40.1079 27.147 39.3983 27.1425 38.6325V17.1359C27.1357 15.9618 26.2104 15.0137 25.0713 15.0137C23.9322 15.0137 23.0069 15.9618 23 17.1359V38.6325Z" fill="#003D8F"/>
</svg>
