<?xml version="1.0" encoding="utf-8"?>
<!-- Generator: Adobe Illustrator 25.4.1, SVG Export Plug-In . SVG Version: 6.00 Build 0)  -->
<svg version="1.1" id="Layer_1" xmlns="http://www.w3.org/2000/svg" xmlns:xlink="http://www.w3.org/1999/xlink" x="0px" y="0px"
	 viewBox="0 0 60 29" style="enable-background:new 0 0 60 29;" xml:space="preserve">
<style type="text/css">
	.st0{fill:#F66035;}
	.st1{fill:#FFFFFF;}
</style>
<path class="st0" d="M56.529,27.73H3.471c-1.681,0-3.044-1.363-3.044-3.044V4.314c0-1.681,1.363-3.044,3.044-3.044h53.058
	c1.681,0,3.044,1.363,3.044,3.044v20.373C59.573,26.367,58.21,27.73,56.529,27.73z"/>
<g>
	<path class="st1" d="M26.445,17.496c0,0.876-0.602,2.16-2.181,2.16c-1.303,0-2.114-1.049-2.114-2.16v-5.594h-2.755v5.555
		c0,1.499,0.346,2.655,1.028,3.438c0.686,0.788,2.011,1.433,3.267,1.433c1.832,0,2.563-0.843,2.855-1.265l0.004,1.295h2.67V11.902
		h-2.774C26.445,11.902,26.445,16.137,26.445,17.496z"/>
	<path class="st1" d="M39.246,6.641v6.001c-0.874-0.623-1.943-0.991-3.098-0.991c-2.951,0-5.344,2.392-5.344,5.344
		s2.392,5.344,5.344,5.344c1.155,0,2.224-0.368,3.098-0.991v1.011h2.78V6.641H39.246z M36.148,19.84
		c-1.571,0-2.845-1.274-2.845-2.845s1.274-2.845,2.845-2.845s2.845,1.274,2.845,2.845S37.719,19.84,36.148,19.84z"/>
	<path class="st1" d="M14.912,6.641v6.001c-0.874-0.623-1.943-0.991-3.098-0.991c-2.951,0-5.344,2.392-5.344,5.344
		s2.392,5.344,5.344,5.344c1.155,0,2.224-0.368,3.098-0.991v0.98h2.78V6.641H14.912z M11.814,19.84
		c-1.571,0-2.845-1.274-2.845-2.845s1.274-2.845,2.845-2.845s2.845,1.274,2.845,2.845S13.385,19.84,11.814,19.84z"/>
	<path class="st1" d="M43.854,12.899l0.93,2.079c1.118-0.752,2.236-1.076,3.469-1.076c2.466,0,2.466,1.609,2.466,1.609
		s-1.358-0.073-2.435-0.052c-1.442,0.031-4.556,0.512-4.556,3.542c0,2.048,1.599,3.323,3.793,3.323c2.236,0,3.103-0.815,3.312-1.181
		l0.01,1.216h2.685v-6.472c0-2.059-1.39-4.357-5.235-4.357C45.965,11.53,44.544,12.366,43.854,12.899z M47.877,20.234
		c-0.627,0-1.672-0.157-1.672-1.348c0-0.867,1.034-1.327,2.069-1.348c1.118-0.021,2.445,0,2.445,0
		C50.719,19.44,49.131,20.234,47.877,20.234z"/>
</g>
</svg>
