<svg width="169" height="60" viewBox="0 0 169 60" fill="none" xmlns="http://www.w3.org/2000/svg">
<rect width="169" height="60" fill="white"/>
<path fill-rule="evenodd" clip-rule="evenodd" d="M75.1179 31.1991C75.1179 25.9137 79.1646 21.748 84.2555 21.748C89.4768 21.748 93.393 25.7793 93.3495 31.1991C93.3495 36.4844 89.3464 40.6053 84.2555 40.6053C79.121 40.6053 75.1179 36.4844 75.1179 31.1991ZM78.686 31.1992C78.686 34.4689 81.1662 37.1117 84.2555 37.1117L84.2556 37.1115C87.3448 37.1115 89.825 34.4241 89.825 31.1992C89.825 27.9295 87.3448 25.2419 84.2555 25.2419C81.1662 25.2419 78.686 27.9295 78.686 31.1992Z" fill="url(#paint0_linear_986_2965)"/>
<path d="M104.485 37.1568C101.163 37.1568 98.7036 34.6037 98.7036 31.2444C98.7036 27.8401 101.206 25.287 104.485 25.287C105.951 25.287 107.375 25.959 108.367 27.1683L110.783 24.7047C109.92 23.585 107.677 21.7485 104.441 21.7485C99.0919 21.7485 95.0798 25.8246 95.0798 31.1996C95.0798 36.4849 99.1783 40.6058 104.441 40.6058C106.167 40.6058 108.108 39.9786 109.489 38.9036C109.964 38.5005 110.395 38.0975 110.783 37.6495L108.324 35.2308L108.281 35.2755C107.332 36.4849 105.951 37.1568 104.485 37.1568Z" fill="url(#paint1_linear_986_2965)"/>
<path fill-rule="evenodd" clip-rule="evenodd" d="M126.514 23.6071V21.748H130.169L130.213 40.6105H126.601V38.5701L125.339 39.4317C124.033 40.3838 122.51 40.8826 121.03 40.8826H120.856C115.895 40.7919 111.848 36.5297 111.848 31.406C111.848 26.1464 115.939 21.8841 121.03 21.8841C122.553 21.8841 124.033 22.2468 125.339 22.9722L126.514 23.6071ZM121.683 37.3459L121.814 37.3006C124.599 36.8924 126.601 34.5347 126.557 31.5874V30.862C126.296 27.7787 123.859 25.3755 120.987 25.3755C117.941 25.3755 115.417 28.0507 115.417 31.3607C115.417 34.6254 117.897 37.3006 120.943 37.3459H121.683Z" fill="url(#paint2_linear_986_2965)"/>
<path d="M69.1294 14.8154H72.8556V40.6054H69.1294V14.8154Z" fill="url(#paint3_linear_986_2965)"/>
<path d="M133.274 14.8154H137V40.6054H133.274V14.8154Z" fill="url(#paint4_linear_986_2965)"/>
<path fill-rule="evenodd" clip-rule="evenodd" d="M48.3689 31.1991C48.3689 25.9137 52.406 21.748 57.4849 21.748C62.6506 21.748 66.5575 25.7793 66.6008 31.1991C66.6008 36.4844 62.6071 40.6053 57.4849 40.6053C52.3626 40.6053 48.3689 36.4844 48.3689 31.1991ZM51.9284 31.1992C51.9284 34.4689 54.4026 37.1117 57.4848 37.1117V37.1115C60.5234 37.1115 63.0411 34.4241 63.0411 31.1992C63.0411 27.9295 60.5669 25.2419 57.4848 25.2419C54.4026 25.2419 51.9284 27.9295 51.9284 31.1992Z" fill="url(#paint5_linear_986_2965)"/>
<path d="M39.1268 40.6058C37.7447 40.6058 36.4056 40.4266 35.1098 40.0234C33.8141 39.6203 32.7775 39.1725 32 38.5901L33.4685 35.4099C34.246 35.9475 35.1531 36.3953 36.1896 36.7088C37.2694 37.0225 38.3494 37.2016 39.3859 37.2016C41.8047 37.2016 43.0141 36.4849 43.0141 35.0964C43.0141 34.4245 42.7117 33.9318 42.0639 33.6631C41.4592 33.3943 40.4657 33.1703 39.1268 32.9464C37.7447 32.7225 36.5783 32.4537 35.7147 32.1401C34.8507 31.8267 34.0733 31.334 33.4685 30.5725C32.8207 29.8558 32.5183 28.7808 32.5183 27.4818C32.5183 25.7798 33.2094 24.3464 34.5052 23.3162C35.8441 22.286 37.6583 21.7485 39.9474 21.7485C41.1136 21.7485 42.2799 21.883 43.4461 22.1964C44.569 22.4652 45.5193 22.8683 46.2535 23.3162L44.785 26.4964C43.3597 25.6007 41.7183 25.1528 39.9475 25.1528C38.7812 25.1528 37.8741 25.3318 37.2694 25.735C36.6648 26.1381 36.3192 26.6755 36.3192 27.3027C36.3192 28.0194 36.6648 28.5568 37.3127 28.8255C37.9605 29.0944 38.9972 29.4079 40.3363 29.6318C41.675 29.8558 42.7982 30.1246 43.6619 30.4381C44.5259 30.7516 45.2602 31.2444 45.8648 31.961C46.4695 32.6777 46.7719 33.6631 46.7719 34.962C46.7719 36.664 46.0808 38.0527 44.7419 39.0829C43.3597 40.1131 41.4592 40.6058 39.1268 40.6058Z" fill="url(#paint6_linear_986_2965)"/>
<defs>
<linearGradient id="paint0_linear_986_2965" x1="93.1075" y1="40.4333" x2="93.1075" y2="22.1512" gradientUnits="userSpaceOnUse">
<stop stop-color="#00AFFF"/>
<stop offset="0.2494" stop-color="#0093FF"/>
<stop offset="0.5046" stop-color="#007FFF"/>
<stop offset="0.7567" stop-color="#0072FF"/>
<stop offset="1" stop-color="#006EFF"/>
</linearGradient>
<linearGradient id="paint1_linear_986_2965" x1="110.579" y1="40.4785" x2="110.579" y2="22.1964" gradientUnits="userSpaceOnUse">
<stop stop-color="#00AFFF"/>
<stop offset="0.2494" stop-color="#0093FF"/>
<stop offset="0.5046" stop-color="#007FFF"/>
<stop offset="0.7567" stop-color="#0072FF"/>
<stop offset="1" stop-color="#006EFF"/>
</linearGradient>
<linearGradient id="paint2_linear_986_2965" x1="129.918" y1="40.6631" x2="129.918" y2="22.156" gradientUnits="userSpaceOnUse">
<stop stop-color="#00AFFF"/>
<stop offset="0.2494" stop-color="#0093FF"/>
<stop offset="0.5046" stop-color="#007FFF"/>
<stop offset="0.7567" stop-color="#0072FF"/>
<stop offset="1" stop-color="#006EFF"/>
</linearGradient>
<linearGradient id="paint3_linear_986_2965" x1="72.2976" y1="40.7022" x2="72.2976" y2="22.3954" gradientUnits="userSpaceOnUse">
<stop stop-color="#00AFFF"/>
<stop offset="0.2494" stop-color="#0093FF"/>
<stop offset="0.5046" stop-color="#007FFF"/>
<stop offset="0.7567" stop-color="#0072FF"/>
<stop offset="1" stop-color="#006EFF"/>
</linearGradient>
<linearGradient id="paint4_linear_986_2965" x1="136.451" y1="40.7022" x2="136.451" y2="22.3954" gradientUnits="userSpaceOnUse">
<stop stop-color="#00AFFF"/>
<stop offset="0.2494" stop-color="#0093FF"/>
<stop offset="0.5046" stop-color="#007FFF"/>
<stop offset="0.7567" stop-color="#0072FF"/>
<stop offset="1" stop-color="#006EFF"/>
</linearGradient>
<linearGradient id="paint5_linear_986_2965" x1="66.3173" y1="40.4333" x2="66.3173" y2="22.1512" gradientUnits="userSpaceOnUse">
<stop stop-color="#00AFFF"/>
<stop offset="0.2494" stop-color="#0093FF"/>
<stop offset="0.5046" stop-color="#007FFF"/>
<stop offset="0.7567" stop-color="#0072FF"/>
<stop offset="1" stop-color="#006EFF"/>
</linearGradient>
<linearGradient id="paint6_linear_986_2965" x1="46.5302" y1="40.4338" x2="46.5302" y2="22.1517" gradientUnits="userSpaceOnUse">
<stop stop-color="#00AFFF"/>
<stop offset="0.2494" stop-color="#0093FF"/>
<stop offset="0.5046" stop-color="#007FFF"/>
<stop offset="0.7567" stop-color="#0072FF"/>
<stop offset="1" stop-color="#006EFF"/>
</linearGradient>
</defs>
</svg>
